<svg xmlns="http://www.w3.org/2000/svg" width="1440" height="900"><path d="M668,464L589,452L665,510Z" fill="#9a9a9a" stroke="#9a9a9a" stroke-width="1.51"/><path d="M589,452L559,598L665,510Z" fill="#979797" stroke="#979797" stroke-width="1.51"/><path d="M665,510L750,545L668,464Z" fill="#8f8f8f" stroke="#8f8f8f" stroke-width="1.51"/><path d="M737,633L750,545L665,510Z" fill="#858585" stroke="#858585" stroke-width="1.51"/><path d="M668,464L698,365L589,452Z" fill="#a1a1a1" stroke="#a1a1a1" stroke-width="1.51"/><path d="M808,488L698,365L668,464Z" fill="#979797" stroke="#979797" stroke-width="1.51"/><path d="M589,452L477,458L559,598Z" fill="#a1a1a1" stroke="#a1a1a1" stroke-width="1.51"/><path d="M477,386L477,458L589,452Z" fill="#aeaeae" stroke="#aeaeae" stroke-width="1.51"/><path d="M559,598L610,635L665,510Z" fill="#8c8c8c" stroke="#8c8c8c" stroke-width="1.51"/><path d="M499,284L477,386L589,452Z" fill="#b8b8b8" stroke="#b8b8b8" stroke-width="1.51"/><path d="M750,545L808,488L668,464Z" fill="#8c8c8c" stroke="#8c8c8c" stroke-width="1.51"/><path d="M750,545L894,591L808,488Z" fill="#7e7e7e" stroke="#7e7e7e" stroke-width="1.51"/><path d="M610,635L737,633L665,510Z" fill="#858585" stroke="#858585" stroke-width="1.51"/><path d="M561,251L499,284L589,452Z" fill="#bdbdbd" stroke="#bdbdbd" stroke-width="1.51"/><path d="M772,274L736,284L698,365Z" fill="#ababab" stroke="#ababab" stroke-width="1.51"/><path d="M561,251L589,452L698,365Z" fill="#b1b1b1" stroke="#b1b1b1" stroke-width="1.51"/><path d="M736,284L710,259L698,365Z" fill="#aeaeae" stroke="#aeaeae" stroke-width="1.51"/><path d="M710,259L561,251L698,365Z" fill="#b6b6b6" stroke="#b6b6b6" stroke-width="1.51"/><path d="M477,458L382,517L559,598Z" fill="#a2a2a2" stroke="#a2a2a2" stroke-width="1.51"/><path d="M559,598L491,712L610,635Z" fill="#888888" stroke="#888888" stroke-width="1.51"/><path d="M477,386L382,517L477,458Z" fill="#b0b0b0" stroke="#b0b0b0" stroke-width="1.51"/><path d="M266,520L382,517L262,500Z" fill="#b0b0b0" stroke="#b0b0b0" stroke-width="1.51"/><path d="M382,517L442,648L559,598Z" fill="#999999" stroke="#999999" stroke-width="1.51"/><path d="M610,635L633,741L737,633Z" fill="#7a7a7a" stroke="#7a7a7a" stroke-width="1.51"/><path d="M808,488L772,274L698,365Z" fill="#9f9f9f" stroke="#9f9f9f" stroke-width="1.51"/><path d="M736,284L772,274L710,259Z" fill="#afafaf" stroke="#afafaf" stroke-width="1.51"/><path d="M491,712L633,741L610,635Z" fill="#7d7d7d" stroke="#7d7d7d" stroke-width="1.51"/><path d="M442,648L491,712L559,598Z" fill="#8c8c8c" stroke="#8c8c8c" stroke-width="1.51"/><path d="M808,488L918,343L772,274Z" fill="#999999" stroke="#999999" stroke-width="1.51"/><path d="M737,633L894,591L750,545Z" fill="#797979" stroke="#797979" stroke-width="1.51"/><path d="M934,685L894,591L737,633Z" fill="#6c6c6c" stroke="#6c6c6c" stroke-width="1.51"/><path d="M491,712L558,779L633,741Z" fill="#747474" stroke="#747474" stroke-width="1.51"/><path d="M894,591L935,456L808,488Z" fill="#7d7d7d" stroke="#7d7d7d" stroke-width="1.51"/><path d="M935,456L918,343L808,488Z" fill="#898989" stroke="#898989" stroke-width="1.51"/><path d="M262,500L382,517L268,325Z" fill="#bbbbbb" stroke="#bbbbbb" stroke-width="1.51"/><path d="M561,251L482,190L499,284Z" fill="#cbcbcb" stroke="#cbcbcb" stroke-width="1.51"/><path d="M608,60L482,190L561,251Z" fill="#d0d0d0" stroke="#d0d0d0" stroke-width="1.51"/><path d="M608,60L561,251L710,259Z" fill="#c5c5c5" stroke="#c5c5c5" stroke-width="1.51"/><path d="M633,741L721,811L737,633Z" fill="#6a6a6a" stroke="#6a6a6a" stroke-width="1.51"/><path d="M558,779L721,811L633,741Z" fill="#656565" stroke="#656565" stroke-width="1.51"/><path d="M362,807L423,833L491,712Z" fill="#757575" stroke="#757575" stroke-width="1.51"/><path d="M491,712L423,833L558,779Z" fill="#737373" stroke="#737373" stroke-width="1.51"/><path d="M382,517L301,627L442,648Z" fill="#9e9e9e" stroke="#9e9e9e" stroke-width="1.51"/><path d="M266,520L301,627L382,517Z" fill="#a8a8a8" stroke="#a8a8a8" stroke-width="1.51"/><path d="M382,517L477,386L268,325Z" fill="#bdbdbd" stroke="#bdbdbd" stroke-width="1.51"/><path d="M268,325L477,386L499,284Z" fill="#c7c7c7" stroke="#c7c7c7" stroke-width="1.51"/><path d="M865,787L934,685L737,633Z" fill="#616161" stroke="#616161" stroke-width="1.51"/><path d="M894,591L997,516L935,456Z" fill="#757575" stroke="#757575" stroke-width="1.51"/><path d="M934,685L997,516L894,591Z" fill="#6a6a6a" stroke="#6a6a6a" stroke-width="1.51"/><path d="M935,456L996,411L918,343Z" fill="#878787" stroke="#878787" stroke-width="1.51"/><path d="M997,516L996,411L935,456Z" fill="#7c7c7c" stroke="#7c7c7c" stroke-width="1.51"/><path d="M918,343L860,187L772,274Z" fill="#a5a5a5" stroke="#a5a5a5" stroke-width="1.51"/><path d="M772,274L860,187L710,259Z" fill="#afafaf" stroke="#afafaf" stroke-width="1.51"/><path d="M1016,227L860,187L918,343Z" fill="#9e9e9e" stroke="#9e9e9e" stroke-width="1.51"/><path d="M721,811L865,787L737,633Z" fill="#5f5f5f" stroke="#5f5f5f" stroke-width="1.51"/><path d="M362,159L268,325L499,284Z" fill="#d3d3d3" stroke="#d3d3d3" stroke-width="1.51"/><path d="M558,779L591,931L721,811Z" fill="#5b5b5b" stroke="#5b5b5b" stroke-width="1.51"/><path d="M362,807L491,712L442,648Z" fill="#828282" stroke="#828282" stroke-width="1.51"/><path d="M423,833L437,854L558,779Z" fill="#6b6b6b" stroke="#6b6b6b" stroke-width="1.51"/><path d="M301,627L362,807L442,648Z" fill="#8e8e8e" stroke="#8e8e8e" stroke-width="1.51"/><path d="M423,833L303,866L437,854Z" fill="#6c6c6c" stroke="#6c6c6c" stroke-width="1.51"/><path d="M450,96L362,159L482,190Z" fill="#dbdbdb" stroke="#dbdbdb" stroke-width="1.51"/><path d="M482,190L362,159L499,284Z" fill="#d3d3d3" stroke="#d3d3d3" stroke-width="1.51"/><path d="M830,64L608,60L710,259Z" fill="#c1c1c1" stroke="#c1c1c1" stroke-width="1.51"/><path d="M527,49L450,96L482,190Z" fill="#dadada" stroke="#dadada" stroke-width="1.51"/><path d="M188,334L191,425L268,325Z" fill="#d0d0d0" stroke="#d0d0d0" stroke-width="1.51"/><path d="M268,325L191,425L262,500Z" fill="#c4c4c4" stroke="#c4c4c4" stroke-width="1.51"/><path d="M262,500L150,560L266,520Z" fill="#b2b2b2" stroke="#b2b2b2" stroke-width="1.51"/><path d="M150,560L201,688L301,627Z" fill="#a3a3a3" stroke="#a3a3a3" stroke-width="1.51"/><path d="M301,627L201,688L362,807Z" fill="#8f8f8f" stroke="#8f8f8f" stroke-width="1.51"/><path d="M608,60L527,49L482,190Z" fill="#d7d7d7" stroke="#d7d7d7" stroke-width="1.51"/><path d="M437,854L591,931L558,779Z" fill="#626262" stroke="#626262" stroke-width="1.51"/><path d="M748,953L914,855L865,787Z" fill="#444444" stroke="#444444" stroke-width="1.51"/><path d="M527,49L436,2L450,96Z" fill="#e0e0e0" stroke="#e0e0e0" stroke-width="1.51"/><path d="M608,60L530,43L527,49Z" fill="#d9d9d9" stroke="#d9d9d9" stroke-width="1.51"/><path d="M1091,441L1039,303L996,411Z" fill="#818181" stroke="#818181" stroke-width="1.51"/><path d="M996,411L1039,303L918,343Z" fill="#8c8c8c" stroke="#8c8c8c" stroke-width="1.51"/><path d="M362,159L294,171L268,325Z" fill="#dddddd" stroke="#dddddd" stroke-width="1.51"/><path d="M219,116L294,171L362,159Z" fill="#e5e5e5" stroke="#e5e5e5" stroke-width="1.51"/><path d="M436,2L362,159L450,96Z" fill="#e2e2e2" stroke="#e2e2e2" stroke-width="1.51"/><path d="M187,231L188,334L268,325Z" fill="#d9d9d9" stroke="#d9d9d9" stroke-width="1.51"/><path d="M915,67L830,64L860,187Z" fill="#b3b3b3" stroke="#b3b3b3" stroke-width="1.51"/><path d="M860,187L830,64L710,259Z" fill="#b4b4b4" stroke="#b4b4b4" stroke-width="1.51"/><path d="M608,60L643,15L530,43Z" fill="#d5d5d5" stroke="#d5d5d5" stroke-width="1.51"/><path d="M1039,303L1016,227L918,343Z" fill="#939393" stroke="#939393" stroke-width="1.51"/><path d="M997,516L1091,441L996,411Z" fill="#777777" stroke="#777777" stroke-width="1.51"/><path d="M1039,303L1103,240L1016,227Z" fill="#929292" stroke="#929292" stroke-width="1.51"/><path d="M1137,533L1091,441L997,516Z" fill="#6c6c6c" stroke="#6c6c6c" stroke-width="1.51"/><path d="M830,64L643,15L608,60Z" fill="#c9c9c9" stroke="#c9c9c9" stroke-width="1.51"/><path d="M150,560L301,627L266,520Z" fill="#ababab" stroke="#ababab" stroke-width="1.51"/><path d="M934,685L1056,709L997,516Z" fill="#5f5f5f" stroke="#5f5f5f" stroke-width="1.51"/><path d="M865,787L1033,813L934,685Z" fill="#4c4c4c" stroke="#4c4c4c" stroke-width="1.51"/><path d="M748,953L865,787L721,811Z" fill="#4b4b4b" stroke="#4b4b4b" stroke-width="1.51"/><path d="M191,425L150,560L262,500Z" fill="#b9b9b9" stroke="#b9b9b9" stroke-width="1.51"/><path d="M129,452L150,560L191,425Z" fill="#bebebe" stroke="#bebebe" stroke-width="1.51"/><path d="M591,931L748,953L721,811Z" fill="#4c4c4c" stroke="#4c4c4c" stroke-width="1.51"/><path d="M498,1018L606,967L591,931Z" fill="#585858" stroke="#585858" stroke-width="1.51"/><path d="M498,1018L591,931L437,854Z" fill="#5c5c5c" stroke="#5c5c5c" stroke-width="1.51"/><path d="M606,967L748,953L591,931Z" fill="#505050" stroke="#505050" stroke-width="1.51"/><path d="M1033,813L1056,709L934,685Z" fill="#4c4c4c" stroke="#4c4c4c" stroke-width="1.51"/><path d="M188,334L129,452L191,425Z" fill="#cbcbcb" stroke="#cbcbcb" stroke-width="1.51"/><path d="M362,807L303,866L423,833Z" fill="#717171" stroke="#717171" stroke-width="1.51"/><path d="M182,815L303,866L362,807Z" fill="#767676" stroke="#767676" stroke-width="1.51"/><path d="M294,171L187,231L268,325Z" fill="#dedede" stroke="#dedede" stroke-width="1.51"/><path d="M188,334L69,278L129,452Z" fill="#d5d5d5" stroke="#d5d5d5" stroke-width="1.51"/><path d="M1091,441L1098,303L1039,303Z" fill="#848484" stroke="#848484" stroke-width="1.51"/><path d="M830,64L793,4L643,15Z" fill="#c4c4c4" stroke="#c4c4c4" stroke-width="1.51"/><path d="M1016,227L915,67L860,187Z" fill="#a7a7a7" stroke="#a7a7a7" stroke-width="1.51"/><path d="M1007,36L915,67L1061,68Z" fill="#a9a9a9" stroke="#a9a9a9" stroke-width="1.51"/><path d="M905,46L793,4L830,64Z" fill="#bababa" stroke="#bababa" stroke-width="1.51"/><path d="M1056,709L1137,533L997,516Z" fill="#606060" stroke="#606060" stroke-width="1.51"/><path d="M1091,441L1208,341L1098,303Z" fill="#7a7a7a" stroke="#7a7a7a" stroke-width="1.51"/><path d="M530,43L436,2L527,49Z" fill="#dfdfdf" stroke="#dfdfdf" stroke-width="1.51"/><path d="M294,171L219,116L187,231Z" fill="#e6e6e6" stroke="#e6e6e6" stroke-width="1.51"/><path d="M563,-93L436,2L530,43Z" fill="#e0e0e0" stroke="#e0e0e0" stroke-width="1.51"/><path d="M563,-93L530,43L643,15Z" fill="#d9d9d9" stroke="#d9d9d9" stroke-width="1.51"/><path d="M1007,36L905,46L915,67Z" fill="#afafaf" stroke="#afafaf" stroke-width="1.51"/><path d="M915,67L905,46L830,64Z" fill="#b4b4b4" stroke="#b4b4b4" stroke-width="1.51"/><path d="M1056,709L1194,579L1137,533Z" fill="#555555" stroke="#555555" stroke-width="1.51"/><path d="M914,855L1033,813L865,787Z" fill="#434343" stroke="#434343" stroke-width="1.51"/><path d="M978,960L1033,813L914,855Z" fill="#373737" stroke="#373737" stroke-width="1.51"/><path d="M1098,303L1103,240L1039,303Z" fill="#8c8c8c" stroke="#8c8c8c" stroke-width="1.51"/><path d="M1208,341L1103,240L1098,303Z" fill="#828282" stroke="#828282" stroke-width="1.51"/><path d="M150,560L110,649L201,688Z" fill="#a5a5a5" stroke="#a5a5a5" stroke-width="1.51"/><path d="M201,688L182,815L362,807Z" fill="#838383" stroke="#838383" stroke-width="1.51"/><path d="M74,577L110,649L150,560Z" fill="#adadad" stroke="#adadad" stroke-width="1.51"/><path d="M278,1074L403,981L303,866Z" fill="#686868" stroke="#686868" stroke-width="1.51"/><path d="M303,866L403,981L437,854Z" fill="#656565" stroke="#656565" stroke-width="1.51"/><path d="M310,-44L219,116L362,159Z" fill="#ebebeb" stroke="#ebebeb" stroke-width="1.51"/><path d="M403,981L498,1018L437,854Z" fill="#616161" stroke="#616161" stroke-width="1.51"/><path d="M606,967L643,1054L748,953Z" fill="#4e4e4e" stroke="#4e4e4e" stroke-width="1.51"/><path d="M105,757L182,815L201,688Z" fill="#8b8b8b" stroke="#8b8b8b" stroke-width="1.51"/><path d="M95,103L121,252L187,231Z" fill="#e9e9e9" stroke="#e9e9e9" stroke-width="1.51"/><path d="M187,231L121,252L188,334Z" fill="#dfdfdf" stroke="#dfdfdf" stroke-width="1.51"/><path d="M129,452L74,577L150,560Z" fill="#b7b7b7" stroke="#b7b7b7" stroke-width="1.51"/><path d="M110,649L105,757L201,688Z" fill="#999999" stroke="#999999" stroke-width="1.51"/><path d="M-12,449L74,577L129,452Z" fill="#c0c0c0" stroke="#c0c0c0" stroke-width="1.51"/><path d="M1109,801L1127,737L1056,709Z" fill="#404040" stroke="#404040" stroke-width="1.51"/><path d="M498,1018L643,1054L606,967Z" fill="#565656" stroke="#565656" stroke-width="1.51"/><path d="M748,953L918,973L914,855Z" fill="#3d3d3d" stroke="#3d3d3d" stroke-width="1.51"/><path d="M799,1056L918,973L748,953Z" fill="#404040" stroke="#404040" stroke-width="1.51"/><path d="M1033,813L1109,801L1056,709Z" fill="#3e3e3e" stroke="#3e3e3e" stroke-width="1.51"/><path d="M1270,468L1208,341L1091,441Z" fill="#696969" stroke="#696969" stroke-width="1.51"/><path d="M1127,737L1194,579L1056,709Z" fill="#4c4c4c" stroke="#4c4c4c" stroke-width="1.51"/><path d="M1127,737L1264,711L1194,579Z" fill="#434343" stroke="#434343" stroke-width="1.51"/><path d="M1141,856L1109,801L1033,813Z" fill="#333333" stroke="#333333" stroke-width="1.51"/><path d="M711,-90L643,15L793,4Z" fill="#cacaca" stroke="#cacaca" stroke-width="1.51"/><path d="M711,-90L563,-93L643,15Z" fill="#d2d2d2" stroke="#d2d2d2" stroke-width="1.51"/><path d="M436,2L310,-44L362,159Z" fill="#e9e9e9" stroke="#e9e9e9" stroke-width="1.51"/><path d="M721,-105L711,-90L793,4Z" fill="#c7c7c7" stroke="#c7c7c7" stroke-width="1.51"/><path d="M-49,722L105,757L110,649Z" fill="#9a9a9a" stroke="#9a9a9a" stroke-width="1.51"/><path d="M1061,68L915,67L1016,227Z" fill="#a5a5a5" stroke="#a5a5a5" stroke-width="1.51"/><path d="M835,-157L721,-105L793,4Z" fill="#c3c3c3" stroke="#c3c3c3" stroke-width="1.51"/><path d="M121,252L69,278L188,334Z" fill="#dedede" stroke="#dedede" stroke-width="1.51"/><path d="M-23,184L69,278L121,252Z" fill="#e8e8e8" stroke="#e8e8e8" stroke-width="1.51"/><path d="M918,973L978,960L914,855Z" fill="#363636" stroke="#363636" stroke-width="1.51"/><path d="M1028,1020L978,960L918,973Z" fill="#333333" stroke="#333333" stroke-width="1.51"/><path d="M711,-90L721,-105L563,-93Z" fill="#d0d0d0" stroke="#d0d0d0" stroke-width="1.51"/><path d="M835,-157L793,4L905,46Z" fill="#bcbcbc" stroke="#bcbcbc" stroke-width="1.51"/><path d="M643,1054L799,1056L748,953Z" fill="#484848" stroke="#484848" stroke-width="1.51"/><path d="M1270,468L1091,441L1137,533Z" fill="#636363" stroke="#636363" stroke-width="1.51"/><path d="M1097,100L1061,68L1016,227Z" fill="#9e9e9e" stroke="#9e9e9e" stroke-width="1.51"/><path d="M1097,100L1016,227L1103,240Z" fill="#969696" stroke="#969696" stroke-width="1.51"/><path d="M1181,202L1097,100L1103,240Z" fill="#909090" stroke="#909090" stroke-width="1.51"/><path d="M114,882L176,900L182,815Z" fill="#777777" stroke="#777777" stroke-width="1.51"/><path d="M182,815L176,900L303,866Z" fill="#757575" stroke="#757575" stroke-width="1.51"/><path d="M403,981L278,1074L498,1018Z" fill="#646464" stroke="#646464" stroke-width="1.51"/><path d="M448,-109L310,-44L436,2Z" fill="#e9e9e9" stroke="#e9e9e9" stroke-width="1.51"/><path d="M219,116L95,103L187,231Z" fill="#ececec" stroke="#ececec" stroke-width="1.51"/><path d="M331,-171L448,-109L563,-93Z" fill="#e5e5e5" stroke="#e5e5e5" stroke-width="1.51"/><path d="M563,-93L448,-109L436,2Z" fill="#e2e2e2" stroke="#e2e2e2" stroke-width="1.51"/><path d="M310,-44L212,20L219,116Z" fill="#f1f1f1" stroke="#f1f1f1" stroke-width="1.51"/><path d="M1208,341L1181,202L1103,240Z" fill="#828282" stroke="#828282" stroke-width="1.51"/><path d="M69,278L1,387L129,452Z" fill="#d4d4d4" stroke="#d4d4d4" stroke-width="1.51"/><path d="M74,577L-49,722L110,649Z" fill="#a6a6a6" stroke="#a6a6a6" stroke-width="1.51"/><path d="M-106,318L1,387L69,278Z" fill="#dfdfdf" stroke="#dfdfdf" stroke-width="1.51"/><path d="M1109,801L1141,856L1127,737Z" fill="#343434" stroke="#343434" stroke-width="1.51"/><path d="M978,960L1141,856L1033,813Z" fill="#303030" stroke="#303030" stroke-width="1.51"/><path d="M1,387L-12,449L129,452Z" fill="#cbcbcb" stroke="#cbcbcb" stroke-width="1.51"/><path d="M1353,286L1242,149L1181,202Z" fill="#7a7a7a" stroke="#7a7a7a" stroke-width="1.51"/><path d="M1194,579L1270,468L1137,533Z" fill="#575757" stroke="#575757" stroke-width="1.51"/><path d="M1398,590L1270,468L1194,579Z" fill="#4a4a4a" stroke="#4a4a4a" stroke-width="1.51"/><path d="M105,757L114,882L182,815Z" fill="#808080" stroke="#808080" stroke-width="1.51"/><path d="M176,900L278,1074L303,866Z" fill="#6c6c6c" stroke="#6c6c6c" stroke-width="1.51"/><path d="M-21,848L114,882L105,757Z" fill="#808080" stroke="#808080" stroke-width="1.51"/><path d="M-12,449L-22,527L74,577Z" fill="#bebebe" stroke="#bebebe" stroke-width="1.51"/><path d="M212,20L95,103L219,116Z" fill="#f2f2f2" stroke="#f2f2f2" stroke-width="1.51"/><path d="M799,1056L1028,1020L918,973Z" fill="#383838" stroke="#383838" stroke-width="1.51"/><path d="M978,960L1028,1020L1141,856Z" fill="#2d2d2d" stroke="#2d2d2d" stroke-width="1.51"/><path d="M1136,40L1007,36L1061,68Z" fill="#a3a3a3" stroke="#a3a3a3" stroke-width="1.51"/><path d="M995,-181L905,46L1007,36Z" fill="#afafaf" stroke="#afafaf" stroke-width="1.51"/><path d="M995,-181L835,-157L905,46Z" fill="#b5b5b5" stroke="#b5b5b5" stroke-width="1.51"/><path d="M721,-105L835,-157L563,-93Z" fill="#cbcbcb" stroke="#cbcbcb" stroke-width="1.51"/><path d="M1097,100L1136,40L1061,68Z" fill="#9d9d9d" stroke="#9d9d9d" stroke-width="1.51"/><path d="M1242,149L1136,40L1097,100Z" fill="#939393" stroke="#939393" stroke-width="1.51"/><path d="M1242,149L1097,100L1181,202Z" fill="#8c8c8c" stroke="#8c8c8c" stroke-width="1.51"/><path d="M1289,767L1127,737L1141,856Z" fill="#2e2e2e" stroke="#2e2e2e" stroke-width="1.51"/><path d="M1289,767L1264,711L1127,737Z" fill="#323232" stroke="#323232" stroke-width="1.51"/><path d="M498,1018L278,1074L643,1054Z" fill="#5f5f5f" stroke="#5f5f5f" stroke-width="1.51"/><path d="M643,1054L278,1074L799,1056Z" fill="#575757" stroke="#575757" stroke-width="1.51"/><path d="M153,1054L278,1074L176,900Z" fill="#6f6f6f" stroke="#6f6f6f" stroke-width="1.51"/><path d="M310,-44L258,-106L212,20Z" fill="#f2f2f2" stroke="#f2f2f2" stroke-width="1.51"/><path d="M212,20L65,-25L95,103Z" fill="#f8f8f8" stroke="#f8f8f8" stroke-width="1.51"/><path d="M331,-171L258,-106L310,-44Z" fill="#f0f0f0" stroke="#f0f0f0" stroke-width="1.51"/><path d="M331,-171L310,-44L448,-109Z" fill="#ececec" stroke="#ececec" stroke-width="1.51"/><path d="M1353,286L1181,202L1208,341Z" fill="#757575" stroke="#757575" stroke-width="1.51"/><path d="M-73,65L-23,184L95,103Z" fill="#f7f7f7" stroke="#f7f7f7" stroke-width="1.51"/><path d="M95,103L-23,184L121,252Z" fill="#eeeeee" stroke="#eeeeee" stroke-width="1.51"/><path d="M1,387L-106,318L-12,449Z" fill="#d5d5d5" stroke="#d5d5d5" stroke-width="1.51"/><path d="M-12,449L-126,486L-22,527Z" fill="#c3c3c3" stroke="#c3c3c3" stroke-width="1.51"/><path d="M-22,527L-49,722L74,577Z" fill="#afafaf" stroke="#afafaf" stroke-width="1.51"/><path d="M80,1045L153,1054L176,900Z" fill="#727272" stroke="#727272" stroke-width="1.51"/><path d="M-97,706L-49,722L-22,527Z" fill="#a8a8a8" stroke="#a8a8a8" stroke-width="1.51"/><path d="M835,-157L331,-171L563,-93Z" fill="#d9d9d9" stroke="#d9d9d9" stroke-width="1.51"/><path d="M1305,800L1289,767L1141,856Z" fill="#242424" stroke="#242424" stroke-width="1.51"/><path d="M1398,590L1400,423L1270,468Z" fill="#4b4b4b" stroke="#4b4b4b" stroke-width="1.51"/><path d="M1167,981L1181,963L1141,856Z" fill="#212121" stroke="#212121" stroke-width="1.51"/><path d="M1028,1020L1167,981L1141,856Z" fill="#272727" stroke="#272727" stroke-width="1.51"/><path d="M80,1045L176,900L114,882Z" fill="#737373" stroke="#737373" stroke-width="1.51"/><path d="M-49,722L-21,848L105,757Z" fill="#8c8c8c" stroke="#8c8c8c" stroke-width="1.51"/><path d="M1167,981L1191,973L1181,963Z" fill="#1f1f1f" stroke="#1f1f1f" stroke-width="1.51"/><path d="M1181,963L1305,800L1141,856Z" fill="#1f1f1f" stroke="#1f1f1f" stroke-width="1.51"/><path d="M-23,184L-106,318L69,278Z" fill="#e7e7e7" stroke="#e7e7e7" stroke-width="1.51"/><path d="M1191,973L1305,800L1181,963Z" fill="#1a1a1a" stroke="#1a1a1a" stroke-width="1.51"/><path d="M1398,590L1194,579L1264,711Z" fill="#3f3f3f" stroke="#3f3f3f" stroke-width="1.51"/><path d="M1270,468L1353,286L1208,341Z" fill="#666666" stroke="#666666" stroke-width="1.51"/><path d="M-49,722L-132,836L-21,848Z" fill="#878787" stroke="#878787" stroke-width="1.51"/><path d="M-106,318L-126,486L-12,449Z" fill="#cfcfcf" stroke="#cfcfcf" stroke-width="1.51"/><path d="M-178,569L-97,706L-22,527Z" fill="#b0b0b0" stroke="#b0b0b0" stroke-width="1.51"/><path d="M1400,423L1353,286L1270,468Z" fill="#5c5c5c" stroke="#5c5c5c" stroke-width="1.51"/><path d="M-23,184L-96,171L-106,318Z" fill="#ececec" stroke="#ececec" stroke-width="1.51"/><path d="M109,-80L65,-25L212,20Z" fill="#f9f9f9" stroke="#f9f9f9" stroke-width="1.51"/><path d="M109,-80L212,20L258,-106Z" fill="#f6f6f6" stroke="#f6f6f6" stroke-width="1.51"/><path d="M835,-157L995,-181L331,-171Z" fill="#c9c9c9" stroke="#c9c9c9" stroke-width="1.51"/><path d="M1177,-142L995,-181L1007,36Z" fill="#a6a6a6" stroke="#a6a6a6" stroke-width="1.51"/><path d="M1177,-142L1007,36L1136,40Z" fill="#a0a0a0" stroke="#a0a0a0" stroke-width="1.51"/><path d="M1311,53L1136,40L1242,149Z" fill="#898989" stroke="#898989" stroke-width="1.51"/><path d="M331,-171L109,-80L258,-106Z" fill="#f4f4f4" stroke="#f4f4f4" stroke-width="1.51"/><path d="M1398,590L1264,711L1388,719Z" fill="#333333" stroke="#333333" stroke-width="1.51"/><path d="M-21,848L-9,937L114,882Z" fill="#787878" stroke="#787878" stroke-width="1.51"/><path d="M-134,946L-9,937L-21,848Z" fill="#777777" stroke="#777777" stroke-width="1.51"/><path d="M1388,719L1264,711L1289,767Z" fill="#2b2b2b" stroke="#2b2b2b" stroke-width="1.51"/><path d="M-9,937L80,1045L114,882Z" fill="#757575" stroke="#757575" stroke-width="1.51"/><path d="M153,1054L-30,1063L278,1074Z" fill="#727272" stroke="#727272" stroke-width="1.51"/><path d="M1,-5L95,103L65,-25Z" fill="#fbfbfb" stroke="#fbfbfb" stroke-width="1.51"/><path d="M-105,133L-96,171L-23,184Z" fill="#f2f2f2" stroke="#f2f2f2" stroke-width="1.51"/><path d="M-106,318L-178,569L-126,486Z" fill="#c8c8c8" stroke="#c8c8c8" stroke-width="1.51"/><path d="M-23,-95L1,-5L65,-25Z" fill="#fefefe" stroke="#fefefe" stroke-width="1.51"/><path d="M1363,860L1388,719L1305,800Z" fill="#1d1d1d" stroke="#1d1d1d" stroke-width="1.51"/><path d="M1305,800L1388,719L1289,767Z" fill="#242424" stroke="#242424" stroke-width="1.51"/><path d="M-97,706L-132,836L-49,722Z" fill="#929292" stroke="#929292" stroke-width="1.51"/><path d="M-126,486L-178,569L-22,527Z" fill="#bcbcbc" stroke="#bcbcbc" stroke-width="1.51"/><path d="M-105,133L-178,569L-106,318Z" fill="#dddddd" stroke="#dddddd" stroke-width="1.51"/><path d="M-96,171L-105,133L-106,318Z" fill="#eeeeee" stroke="#eeeeee" stroke-width="1.51"/><path d="M-73,65L-105,133L-23,184Z" fill="#f6f6f6" stroke="#f6f6f6" stroke-width="1.51"/><path d="M1398,190L1242,149L1353,286Z" fill="#737373" stroke="#737373" stroke-width="1.51"/><path d="M1398,190L1311,53L1242,149Z" fill="#7c7c7c" stroke="#7c7c7c" stroke-width="1.51"/><path d="M1,-5L-73,65L95,103Z" fill="#fbfbfb" stroke="#fbfbfb" stroke-width="1.51"/><path d="M1505,321L1398,190L1353,286Z" fill="#646464" stroke="#646464" stroke-width="1.51"/><path d="M1191,973L1363,860L1305,800Z" fill="#171717" stroke="#171717" stroke-width="1.51"/><path d="M1311,53L1263,-44L1136,40Z" fill="#8c8c8c" stroke="#8c8c8c" stroke-width="1.51"/><path d="M1260,-97L1263,-44L1335,-20Z" fill="#878787" stroke="#878787" stroke-width="1.51"/><path d="M-9,937L-30,1063L80,1045Z" fill="#767676" stroke="#767676" stroke-width="1.51"/><path d="M-178,569L-132,836L-97,706Z" fill="#9d9d9d" stroke="#9d9d9d" stroke-width="1.51"/><path d="M1263,-44L1177,-142L1136,40Z" fill="#939393" stroke="#939393" stroke-width="1.51"/><path d="M1489,511L1398,590L1584,577Z" fill="#3a3a3a" stroke="#3a3a3a" stroke-width="1.51"/><path d="M1489,511L1468,458L1398,590Z" fill="#3f3f3f" stroke="#3f3f3f" stroke-width="1.51"/><path d="M1398,590L1468,458L1400,423Z" fill="#454545" stroke="#454545" stroke-width="1.51"/><path d="M1400,423L1505,321L1353,286Z" fill="#5b5b5b" stroke="#5b5b5b" stroke-width="1.51"/><path d="M1263,-44L1260,-97L1177,-142Z" fill="#8d8d8d" stroke="#8d8d8d" stroke-width="1.51"/><path d="M1335,-20L1263,-44L1311,53Z" fill="#858585" stroke="#858585" stroke-width="1.51"/><path d="M1465,703L1398,590L1388,719Z" fill="#2d2d2d" stroke="#2d2d2d" stroke-width="1.51"/><path d="M1468,458L1505,321L1400,423Z" fill="#515151" stroke="#515151" stroke-width="1.51"/><path d="M1500,839L1465,703L1388,719Z" fill="#1c1c1c" stroke="#1c1c1c" stroke-width="1.51"/><path d="M1,-5L-130,-52L-73,65Z" fill="#ffffff" stroke="#ffffff" stroke-width="1.51"/><path d="M-73,65L-130,-52L-105,133Z" fill="#fbfbfb" stroke="#fbfbfb" stroke-width="1.51"/><path d="M109,-80L-23,-95L65,-25Z" fill="#fdfdfd" stroke="#fdfdfd" stroke-width="1.51"/><path d="M-98,-149L-23,-95L109,-80Z" fill="#ffffff" stroke="#ffffff" stroke-width="1.51"/><path d="M1450,65L1335,-20L1311,53Z" fill="#7d7d7d" stroke="#7d7d7d" stroke-width="1.51"/><path d="M-116,976L-30,1063L-9,937Z" fill="#777777" stroke="#777777" stroke-width="1.51"/><path d="M80,1045L-30,1063L153,1054Z" fill="#747474" stroke="#747474" stroke-width="1.51"/><path d="M-132,836L-134,946L-21,848Z" fill="#7b7b7b" stroke="#7b7b7b" stroke-width="1.51"/><path d="M-178,569L-134,946L-132,836Z" fill="#8a8a8a" stroke="#8a8a8a" stroke-width="1.51"/><path d="M-134,946L-116,976L-9,937Z" fill="#777777" stroke="#777777" stroke-width="1.51"/><path d="M1398,190L1450,65L1311,53Z" fill="#767676" stroke="#767676" stroke-width="1.51"/><path d="M1557,368L1505,321L1468,458Z" fill="#535353" stroke="#535353" stroke-width="1.51"/><path d="M1505,321L1490,192L1398,190Z" fill="#666666" stroke="#666666" stroke-width="1.51"/><path d="M1363,860L1500,839L1388,719Z" fill="#161616" stroke="#161616" stroke-width="1.51"/><path d="M1629,496L1468,458L1489,511Z" fill="#444444" stroke="#444444" stroke-width="1.51"/><path d="M1361,1072L1440,922L1363,860Z" fill="#080808" stroke="#080808" stroke-width="1.51"/><path d="M1361,1072L1363,860L1191,973Z" fill="#121212" stroke="#121212" stroke-width="1.51"/><path d="M1361,1072L1191,973L1167,981Z" fill="#191919" stroke="#191919" stroke-width="1.51"/><path d="M-23,-95L-130,-52L1,-5Z" fill="#ffffff" stroke="#ffffff" stroke-width="1.51"/><path d="M-105,133L-130,-52L-178,569Z" fill="#ededed" stroke="#ededed" stroke-width="1.51"/><path d="M1335,-20L1349,-142L1260,-97Z" fill="#848484" stroke="#848484" stroke-width="1.51"/><path d="M1490,192L1450,65L1398,190Z" fill="#6d6d6d" stroke="#6d6d6d" stroke-width="1.51"/><path d="M1531,-7L1460,7L1450,65Z" fill="#767676" stroke="#767676" stroke-width="1.51"/><path d="M1505,321L1537,242L1490,192Z" fill="#636363" stroke="#636363" stroke-width="1.51"/><path d="M1629,496L1557,368L1468,458Z" fill="#4a4a4a" stroke="#4a4a4a" stroke-width="1.51"/><path d="M1584,577L1398,590L1465,703Z" fill="#323232" stroke="#323232" stroke-width="1.51"/><path d="M278,1074L1361,1072L799,1056Z" fill="#414141" stroke="#414141" stroke-width="1.51"/><path d="M799,1056L1361,1072L1028,1020Z" fill="#2c2c2c" stroke="#2c2c2c" stroke-width="1.51"/><path d="M1028,1020L1361,1072L1167,981Z" fill="#1f1f1f" stroke="#1f1f1f" stroke-width="1.51"/><path d="M1557,368L1537,242L1505,321Z" fill="#5d5d5d" stroke="#5d5d5d" stroke-width="1.51"/><path d="M1596,747L1500,839L1570,858Z" fill="#121212" stroke="#121212" stroke-width="1.51"/><path d="M1440,922L1500,839L1363,860Z" fill="#070707" stroke="#070707" stroke-width="1.51"/><path d="M1415,-136L1349,-142L1335,-20Z" fill="#7e7e7e" stroke="#7e7e7e" stroke-width="1.51"/><path d="M1260,-97L1349,-142L1177,-142Z" fill="#8a8a8a" stroke="#8a8a8a" stroke-width="1.51"/><path d="M1177,-142L1349,-142L995,-181Z" fill="#969696" stroke="#969696" stroke-width="1.51"/><path d="M1460,7L1335,-20L1450,65Z" fill="#787878" stroke="#787878" stroke-width="1.51"/><path d="M-23,-95L-98,-149L-130,-52Z" fill="#ffffff" stroke="#ffffff" stroke-width="1.51"/><path d="M331,-171L-98,-149L109,-80Z" fill="#fafafa" stroke="#fafafa" stroke-width="1.51"/><path d="M1531,-7L1450,65L1640,142Z" fill="#737373" stroke="#737373" stroke-width="1.51"/><path d="M1611,656L1584,577L1465,703Z" fill="#2f2f2f" stroke="#2f2f2f" stroke-width="1.51"/><path d="M1584,577L1629,496L1489,511Z" fill="#3e3e3e" stroke="#3e3e3e" stroke-width="1.51"/><path d="M1557,368L1640,142L1537,242Z" fill="#646464" stroke="#646464" stroke-width="1.51"/><path d="M1596,747L1611,656L1465,703Z" fill="#262626" stroke="#262626" stroke-width="1.51"/><path d="M1596,747L1465,703L1500,839Z" fill="#1a1a1a" stroke="#1a1a1a" stroke-width="1.51"/><path d="M1611,656L1629,496L1584,577Z" fill="#383838" stroke="#383838" stroke-width="1.51"/><path d="M1640,142L1450,65L1490,192Z" fill="#6f6f6f" stroke="#6f6f6f" stroke-width="1.51"/><path d="M1460,7L1415,-136L1335,-20Z" fill="#7b7b7b" stroke="#7b7b7b" stroke-width="1.51"/><path d="M1349,-142L1633,-122L995,-181Z" fill="#838383" stroke="#838383" stroke-width="1.51"/><path d="M1531,-7L1415,-136L1460,7Z" fill="#777777" stroke="#777777" stroke-width="1.51"/><path d="M1570,858L1500,839L1555,974Z" fill="#020302" stroke="#020302" stroke-width="1.51"/><path d="M1361,1072L1485,1011L1440,922Z" fill="#010201" stroke="#010201" stroke-width="1.51"/><path d="M1555,974L1500,839L1440,922Z" fill="#000000" stroke="#000000" stroke-width="1.51"/><path d="M1640,142L1490,192L1537,242Z" fill="#696969" stroke="#696969" stroke-width="1.51"/><path d="M1485,1011L1555,974L1440,922Z" fill="#000000" stroke="#000000" stroke-width="1.51"/><path d="M1570,858L1555,974L1596,747Z" fill="#0a0a0a" stroke="#0a0a0a" stroke-width="1.51"/><path d="M1629,496L1640,142L1557,368Z" fill="#5b5b5b" stroke="#5b5b5b" stroke-width="1.51"/><path d="M1531,-7L1633,-122L1415,-136Z" fill="#777777" stroke="#777777" stroke-width="1.51"/><path d="M1415,-136L1633,-122L1349,-142Z" fill="#777777" stroke="#777777" stroke-width="1.51"/><path d="M1640,142L1633,-122L1531,-7Z" fill="#767676" stroke="#767676" stroke-width="1.51"/></svg>